<svg xmlns="http://www.w3.org/2000/svg" width="650" height="240" viewBox="110 353 800 295" version="1.1"><path d="M 393.242 426.717 L 393.500 484.500 404.500 484.500 L 415.500 484.500 415.767 459.750 L 416.035 435 436.517 435 L 457 435 457 457.435 C 457 469.774, 457.439 481.024, 457.975 482.435 C 458.941 484.974, 459.060 485, 469.983 485 L 481.016 485 480.758 427.250 L 480.500 369.500 469.269 369.217 L 458.038 368.935 457.769 391.717 L 457.500 414.500 436.769 414.770 L 416.038 415.040 415.769 392.270 L 415.500 369.500 404.242 369.217 L 392.984 368.934 393.242 426.717 M 664.099 418.250 C 664.154 445.337, 664.491 471.325, 664.849 476 L 665.500 484.500 674.750 484.788 C 683.060 485.046, 684.005 484.893, 684.047 483.288 C 684.074 482.304, 684.053 474.863, 684.002 466.750 L 683.910 452 686.818 452 C 689.336 452, 691.606 454.188, 703.779 468.348 L 717.833 484.695 724.666 485.340 C 735.117 486.327, 744 486.144, 744 484.942 C 744 484.361, 741.413 480.843, 738.250 477.126 C 723.057 459.268, 709.158 443.366, 707.660 442.128 C 706.747 441.373, 706 440.075, 706 439.243 C 706 437.688, 716.486 425.799, 732.750 408.914 C 737.837 403.633, 742 398.737, 742 398.035 C 742 397.045, 739.169 396.853, 729.386 397.178 L 716.772 397.598 712.136 402.711 C 709.586 405.524, 702.775 413.036, 697 419.406 C 691.225 425.776, 685.938 430.991, 685.250 430.994 C 684.277 430.999, 684 424.137, 684 400 L 684 369 674 369 L 664 369 664.099 418.250 M 598.266 398.513 C 590.075 400.293, 586.280 402.627, 583.655 407.500 C 581.642 411.236, 581.479 413.139, 581.186 436.359 C 580.900 458.983, 581.053 461.816, 582.892 467.871 C 587.373 482.624, 596.447 486.274, 628.403 486.177 C 642.893 486.133, 646.590 485.838, 647.799 484.630 C 648.745 483.683, 649.466 480.414, 649.769 475.695 L 650.247 468.253 629.373 467.769 C 617.284 467.489, 607.322 466.807, 605.702 466.149 C 600.621 464.086, 599.730 459.840, 600.218 440.026 C 600.509 428.236, 601.088 421.598, 601.988 419.745 C 604.165 415.261, 608.520 414.676, 630.303 415.940 C 640.746 416.546, 649.551 416.783, 649.868 416.465 C 650.834 415.499, 649.874 400.543, 648.803 399.880 C 646.813 398.647, 627.668 397.002, 616.214 397.079 C 609.771 397.123, 601.695 397.768, 598.266 398.513 M 509.830 398.696 C 507.261 398.920, 504.688 399.671, 504.111 400.366 C 502.244 402.616, 499.992 414.065, 501.325 414.534 C 501.971 414.762, 512.041 415.072, 523.702 415.224 C 539.393 415.428, 545.240 415.836, 546.194 416.792 C 546.955 417.555, 547.487 420.520, 547.492 424.030 L 547.500 429.976 526.500 430.257 C 496.342 430.661, 497 430.082, 497 456.170 C 497 476.185, 497.826 479.055, 504.579 482.500 C 508.187 484.340, 510.837 484.525, 537.755 484.818 C 564.335 485.106, 567.069 484.983, 567.651 483.466 C 568.004 482.548, 567.880 465.980, 567.378 446.648 C 566.473 411.899, 566.435 411.450, 563.982 407.051 C 559.554 399.113, 557.521 398.516, 534.500 398.395 C 523.500 398.337, 512.398 398.473, 509.830 398.696 M 759.242 399.059 C 752.353 400.417, 749.652 402.200, 747.213 407 C 744.957 411.438, 744.930 411.919, 745.213 442.075 L 745.500 472.651 748.316 476.904 C 753.055 484.061, 754.660 484.401, 785.656 484.808 C 816.774 485.217, 813.437 486.435, 814.579 474.250 C 815.124 468.438, 814.985 466.990, 813.879 466.948 C 813.121 466.920, 802.541 466.941, 790.370 466.996 C 764.494 467.114, 765 467.291, 765 458.088 L 765 452.319 786.750 451.356 C 817.801 449.980, 817.510 450.223, 816.827 426.245 C 816.081 400.079, 813.227 397.891, 780.114 398.110 C 770.976 398.170, 761.584 398.597, 759.242 399.059 M 843.813 399.955 C 836.207 400.745, 834.424 401.871, 831.863 407.500 C 830.214 411.125, 830.042 414.839, 830.022 447.128 C 830.004 476.479, 830.247 482.960, 831.401 483.918 C 832.298 484.662, 835.987 484.976, 841.651 484.790 L 850.500 484.500 850.764 452.036 C 850.932 431.348, 851.404 419.196, 852.063 418.536 C 852.633 417.966, 859.705 417.275, 867.799 417 L 882.500 416.500 882.500 408 L 882.500 399.500 866.500 399.380 C 857.700 399.314, 847.491 399.573, 843.813 399.955 M 770.500 416.724 C 766.619 417.678, 766 419.040, 766 426.622 L 766 434 781.500 434 L 797 434 797 426.655 C 797 416.459, 796.342 415.967, 782.921 416.116 C 777.190 416.180, 771.600 416.453, 770.500 416.724 M 515.390 450.426 C 514.175 453.591, 515.889 466.391, 517.709 467.750 C 518.865 468.614, 523.803 469, 533.691 469 L 548 469 548 459.500 L 548 450 542.656 450 C 539.716 450, 532.528 449.707, 526.682 449.350 C 517.174 448.768, 515.983 448.882, 515.390 450.426" stroke="none" fill="#154a87" fill-rule="evenodd"/><path d="M 142.155 355.536 C 127.725 358.668, 115.362 371.538, 112.124 386.799 C 110.538 394.277, 110.539 607.728, 112.125 615.201 C 114.768 627.648, 122.696 638.151, 133.500 643.519 L 139.500 646.500 231.722 646.770 C 322.943 647.038, 324.010 647.018, 330.139 644.953 C 344.968 639.958, 354.400 628.338, 356.888 612 C 357.483 608.093, 357.966 563.013, 358.100 499 C 358.315 395.610, 358.264 392.309, 356.353 385.959 C 351.529 369.930, 339.548 358.920, 323.144 355.443 C 313.498 353.398, 151.621 353.482, 142.155 355.536 M 212.830 373.981 L 140.160 374.500 137.444 377 C 135.950 378.375, 133.931 381.300, 132.956 383.500 C 131.301 387.236, 131.162 394.979, 130.842 501 C 130.500 614.497, 130.500 614.500, 132.589 618.500 C 133.738 620.700, 136.480 623.773, 138.682 625.329 L 142.685 628.158 234.534 628.042 C 323.146 627.930, 326.493 627.859, 329.480 626.012 C 334.560 622.872, 337.017 617.249, 338.118 606.235 C 338.703 600.389, 338.973 555.156, 338.796 493 C 338.502 390.029, 338.489 389.477, 336.386 385 C 331.505 374.612, 326.729 372.922, 303.124 373.231 C 293.431 373.358, 252.799 373.695, 212.830 373.981 M 189.888 428.408 C 182.525 436.333, 175.806 442.858, 174.958 442.908 C 174.110 442.959, 171.429 440.975, 169 438.500 C 166.571 436.025, 163.845 434, 162.942 434 C 161.273 434, 151 445.030, 151 446.822 C 151 447.361, 154.488 451.068, 158.750 455.059 C 166.877 462.668, 175.561 467.591, 178.956 466.514 C 181.831 465.601, 211.554 434.460, 213.535 430.284 C 215.728 425.665, 214.895 420.544, 211.350 416.844 C 206.305 411.577, 204.748 412.416, 189.888 428.408 M 240.161 430.912 C 233.731 431.427, 232.524 431.847, 230.411 434.306 C 226.246 439.152, 227.747 446.161, 233.462 448.548 C 238.751 450.759, 302.775 450.675, 307.460 448.452 C 313.173 445.741, 314.909 437.818, 310.711 433.620 C 308.593 431.502, 307.270 431.281, 293.052 430.665 C 275.732 429.916, 251.159 430.030, 240.161 430.912 M 184.055 498.551 L 174.815 508.101 169.951 503.551 C 167.275 501.048, 164.521 499, 163.830 499 C 162.243 499, 152 509.756, 152 511.422 C 152 513.051, 165.514 526.021, 170 528.696 C 171.925 529.845, 175.047 531.112, 176.937 531.513 C 180.302 532.226, 180.599 532.005, 191.261 520.870 C 201.674 509.995, 206 503.999, 206 500.441 C 206 495.203, 200.143 489, 195.197 489 C 194.104 489, 189.360 493.067, 184.055 498.551 M 219.800 503.046 C 217.168 505.679, 216.834 506.596, 217.343 509.796 C 217.695 512.006, 218.977 514.408, 220.522 515.750 L 223.112 518 264.410 518 L 305.708 518 308.354 515.548 C 312.139 512.040, 312.144 505.045, 308.365 502.073 C 305.796 500.052, 304.700 500, 264.288 500 L 222.846 500 219.800 503.046 M 392.305 510.790 C 391.565 511.260, 390.995 514.966, 390.805 520.525 L 390.500 529.500 408.402 529.774 L 426.305 530.047 425.902 576.774 L 425.500 623.500 436.386 623.785 L 447.272 624.070 446.805 576.983 L 446.338 529.896 463.565 530.071 C 473.040 530.168, 481.289 529.939, 481.896 529.564 C 483.435 528.613, 483.352 512.752, 481.800 511.200 C 480.903 510.303, 469.606 510.004, 437.050 510.015 C 413.097 510.024, 392.962 510.372, 392.305 510.790 M 690.450 512.270 C 689.632 514.402, 690.415 622.750, 691.255 623.589 C 691.670 624.004, 696.170 624.379, 701.255 624.422 L 710.500 624.500 710.500 608.014 C 710.500 592.941, 710.654 591.499, 712.298 591.182 C 713.287 590.991, 714.821 591.435, 715.706 592.167 C 717.589 593.725, 737.407 616.148, 741.286 621.109 L 743.938 624.500 756.083 624.836 C 763.051 625.029, 768.639 624.761, 769.194 624.206 C 770.063 623.337, 759.619 610.659, 743.065 592.490 C 735.732 584.442, 730.997 578.786, 731.034 578.120 C 731.052 577.779, 739.152 568.991, 749.034 558.592 C 758.915 548.192, 767 539.080, 767 538.342 C 767 537.294, 764.374 537, 755.016 537 C 740.936 537, 743.908 535.094, 724.966 556.275 C 718.191 563.851, 712.164 569.888, 711.574 569.692 C 710.857 569.454, 710.334 559.708, 710 540.417 L 709.500 511.500 700.233 511.212 C 693.186 510.993, 690.843 511.247, 690.450 512.270 M 487.452 537.902 C 484.126 538.231, 480.151 539.323, 478.619 540.328 C 473.295 543.821, 473.074 545.578, 472.999 585.136 C 472.961 605.136, 472.946 622.063, 472.965 622.750 C 472.991 623.664, 475.685 624, 483 624 L 493 624 493.015 591.250 C 493.024 572.382, 493.432 557.864, 493.978 557 C 494.730 555.810, 497.876 555.428, 509.213 555.150 C 518.530 554.921, 523.756 554.400, 524.235 553.650 C 525.452 551.745, 525.107 539.507, 523.800 538.200 C 522.530 536.930, 499.228 536.739, 487.452 537.902 M 544.509 537.896 C 536.152 538.457, 535.433 538.678, 534.311 541.029 C 533.646 542.420, 532.967 546.020, 532.801 549.029 L 532.500 554.500 553.976 554.776 C 566.805 554.940, 575.861 555.461, 576.468 556.068 C 577.027 556.627, 577.488 559.797, 577.492 563.113 L 577.500 569.143 558 569.109 C 535.990 569.071, 532.766 569.721, 529.285 574.898 C 527.150 578.073, 527 579.311, 527 593.782 C 527 610.862, 527.918 615.589, 531.993 619.493 C 535.966 623.300, 543.614 624.099, 573 623.778 L 598.500 623.500 598.184 592 C 597.762 549.916, 596.775 544.875, 588 540 C 583.791 537.661, 582.532 537.493, 568.500 537.396 C 560.250 537.340, 549.454 537.565, 544.509 537.896 M 623.764 537.996 C 619.166 539.380, 614.030 543.041, 612.480 546.039 C 609.268 552.250, 608.004 577.762, 609.917 597.774 C 611.512 614.462, 618.164 621.900, 633.322 623.945 C 642.028 625.119, 665.346 625.267, 671.430 624.187 C 675.906 623.392, 676.597 621.951, 677.164 612.247 L 677.500 606.500 655.160 606 C 633.509 605.515, 632.764 605.431, 631.004 603.255 C 628.687 600.392, 627.471 585.671, 628.357 571.203 C 628.960 561.337, 630 557.368, 632.400 555.765 C 633.005 555.361, 643.239 555.024, 655.143 555.015 C 673.947 555.002, 676.866 554.793, 677.393 553.418 C 678.477 550.594, 678.042 539.442, 676.800 538.200 C 675.399 536.799, 628.340 536.618, 623.764 537.996 M 786.203 538.046 C 779.197 539.304, 775.692 541.226, 772.302 545.671 L 769.500 549.343 769.500 580.922 C 769.500 616.201, 769.472 616.044, 776.707 621.001 C 780.084 623.315, 781.105 623.435, 802.362 624.016 C 814.538 624.348, 827.421 624.368, 830.990 624.060 L 837.481 623.500 838.277 618 C 838.715 614.975, 838.944 610.975, 838.787 609.111 L 838.500 605.722 821 606.086 C 795.703 606.613, 791.758 606.389, 790.260 604.342 C 789.567 603.393, 789 600.004, 789 596.809 L 789 591 800.250 590.942 C 820.223 590.840, 833.866 589.491, 836.757 587.332 C 841.075 584.108, 842.245 578.992, 841.637 566 C 841.021 552.846, 839.938 548.268, 836.465 544.141 C 832.090 538.942, 827.397 537.817, 808.500 537.437 C 799.150 537.249, 789.116 537.523, 786.203 538.046 M 869.500 537.949 C 859.403 538.650, 856.815 539.845, 854.250 544.991 C 852.664 548.170, 852.521 552.016, 852.720 585.922 C 852.891 615.033, 853.224 623.530, 854.220 624.178 C 854.924 624.636, 859.325 624.895, 864 624.755 L 872.500 624.500 872.685 591.641 C 872.787 573.568, 873.124 558.119, 873.435 557.309 C 873.904 556.088, 876.519 555.882, 888.797 556.103 C 896.936 556.249, 904.127 556.039, 904.778 555.637 C 906.049 554.851, 905.889 540.247, 904.586 538.139 C 903.827 536.911, 885.836 536.814, 869.500 537.949 M 791.250 557.250 C 790.702 557.938, 790.032 561.763, 789.761 565.750 L 789.267 573 805.134 573 L 821 573 821 566.434 C 821 555.876, 821.183 556, 805.587 556 C 796.111 556, 791.957 556.362, 791.250 557.250 M 161.780 568.734 C 155.972 569.193, 153 572.345, 153 578.046 C 153 581.035, 153.641 582.362, 156.077 584.411 L 159.153 587 179.622 587 C 200.021 587, 200.099 586.992, 202.545 584.545 C 205.611 581.480, 205.895 575.327, 203.129 571.911 C 201.614 570.040, 199.856 569.461, 193.879 568.862 C 186.408 568.114, 170.420 568.050, 161.780 568.734 M 225.772 568.674 C 219.788 569.672, 216.786 578.786, 221.040 583.040 C 222.162 584.162, 224.216 585.512, 225.605 586.040 C 228.823 587.263, 297.131 587.270, 302.401 586.047 C 307.154 584.945, 309.748 582.510, 310.575 578.374 C 311.086 575.820, 310.652 574.642, 308.182 571.877 L 305.166 568.500 266.833 568.359 C 245.750 568.282, 227.272 568.423, 225.772 568.674 M 546.145 596.395 C 546.362 601.597, 547.004 605.406, 547.798 606.200 C 548.709 607.112, 553.427 607.603, 563.586 607.845 L 578.075 608.189 577.787 598.345 L 577.500 588.500 561.645 588.194 L 545.790 587.889 546.145 596.395" stroke="none" fill="#04c7fb" fill-rule="evenodd"/></svg>