<svg xmlns="http://www.w3.org/2000/svg" version="1.1" xmlns:xlink="http://www.w3.org/1999/xlink" xmlns:svgjs="http://svgjs.dev/svgjs" width="1210" height="1438"><svg xmlns="http://www.w3.org/2000/svg" width="1210" height="1438" viewBox="0 0 1210 1438" version="1.1"><path d="M 439 4.601 C 274.361 6.070, 169.058 8.862, 155.072 12.129 C 129.165 18.180, 101.790 31.821, 79.986 49.546 C 71.788 56.210, 53.876 74.598, 47.885 82.500 C 30.526 105.397, 18.371 129.790, 11.991 154.535 C 8.253 169.032, 7.613 182.277, 5.782 283 C 4.002 380.901, 4.026 1056.467, 5.813 1163.500 C 7.444 1261.182, 8.070 1274.034, 11.914 1288.582 C 25.349 1339.438, 56.365 1382.427, 98.654 1408.807 C 103.139 1411.604, 114.839 1417.912, 124.654 1422.824 L 142.500 1431.754 403 1432.426 C 964.494 1433.876, 1024.124 1433.650, 1049.500 1429.982 C 1078.410 1425.803, 1112.632 1409.676, 1138.312 1388.130 C 1169.409 1362.039, 1192.537 1321.275, 1201.477 1276.799 C 1204.676 1260.885, 1205.602 1240.542, 1206.971 1156 C 1210.050 965.960, 1210.912 247.792, 1208.112 205.568 C 1206.465 180.734, 1204.663 170.545, 1198.917 153.562 C 1187.557 119.988, 1172.166 94.381, 1149.070 70.630 C 1121.799 42.584, 1087.475 23.328, 1046.498 13.084 C 1030.715 9.139, 998.451 7.595, 897.500 5.953 C 837.683 4.981, 506.067 4.003, 439 4.601 M 879 98.646 C 874.325 98.775, 801.875 99.378, 718 99.985 C 634.125 100.593, 475.725 101.741, 366 102.537 C 256.275 103.333, 161.917 103.988, 156.316 103.992 L 146.133 104 137.394 112.250 C 121.152 127.584, 110.174 145.319, 107.530 160.500 C 103.242 185.109, 102.253 250.676, 100.950 596.500 C 99.696 929.545, 100.124 1245.877, 101.855 1264.500 C 103.855 1286.022, 105.941 1292.297, 115.187 1304.608 C 123.158 1315.222, 134.343 1325.755, 147.249 1334.803 L 158.997 1343.039 440.249 1342.517 C 1002.995 1341.471, 1044.369 1341.007, 1062.565 1335.531 C 1069.632 1333.404, 1080.248 1325.716, 1086.601 1318.124 C 1093.241 1310.189, 1100.944 1294.870, 1104.515 1282.500 C 1108.431 1268.937, 1111.911 1246.644, 1113.009 1228.091 C 1115.026 1193.996, 1115.974 1069.643, 1115.953 842 C 1115.928 568.506, 1114.487 263.022, 1113.026 221.500 C 1111.379 174.674, 1110.111 166.936, 1101.242 149.588 C 1083.350 114.591, 1063.831 103.216, 1014.500 99.037 C 1004.318 98.175, 906.289 97.892, 879 98.646 M 462.836 298.918 C 450.630 303.691, 433.832 319.255, 389.357 367 C 364.690 393.481, 323.575 433.933, 318.730 436.488 L 314.961 438.476 310.554 436.138 C 305.268 433.334, 297.272 426.746, 282.547 413.067 C 271.071 402.406, 260.845 395, 257.599 395 C 250.946 395, 209.752 437.016, 201.449 452.271 C 198.892 456.968, 198.871 457.155, 200.593 459.794 C 203.563 464.346, 234.831 495.661, 246.500 505.770 C 275.333 530.749, 302.120 547.410, 321.606 552.486 C 331.261 555, 334.032 554.580, 340.651 549.594 C 365.375 530.968, 479.394 411.729, 499.727 383.234 C 515.627 360.952, 512.728 331.696, 492.487 310.179 C 480.804 297.761, 473.189 294.869, 462.836 298.918 M 693.500 376.997 C 659.179 378.156, 630.518 379.857, 618 381.479 C 603.035 383.417, 596.758 386.014, 589.917 393.098 C 571.338 412.341, 570.918 440.599, 588.965 457.307 C 598.835 466.445, 604.964 467.878, 645.744 470.581 C 677.602 472.693, 814.556 473.633, 868 472.106 C 930.966 470.308, 956.922 468.121, 965.154 463.921 C 967.523 462.713, 972.201 458.974, 975.549 455.612 C 993.934 437.156, 994.711 407.903, 977.240 391.936 C 967.238 382.795, 959.214 381.569, 889 378.455 C 849.324 376.695, 729.021 375.798, 693.500 376.997 M 408.500 666.524 C 396.189 674.846, 379.986 690.031, 345.785 725.300 C 329.678 741.910, 315.991 755.500, 315.369 755.500 C 314.747 755.500, 307.091 748.884, 298.355 740.798 C 281.640 725.325, 273.277 718.423, 266.250 714.302 L 262 711.810 257.250 714.554 C 247.487 720.194, 209.748 760.170, 205.218 769.669 C 203.746 772.756, 203.793 773.088, 206.205 776.733 C 215.005 790.031, 258.419 832.049, 281.558 849.663 C 295.829 860.527, 320.910 871.090, 332.926 871.296 C 339.860 871.415, 343.026 869.826, 353.500 860.967 C 367.165 849.410, 421.969 791.151, 439.204 769.861 C 463.218 740.195, 469.558 726.066, 466.009 710.119 C 461.157 688.313, 437.466 665.367, 418.598 664.198 C 413.273 663.868, 411.993 664.163, 408.500 666.524 M 538.342 728.507 C 522.428 745.463, 520.818 748.996, 522.955 762.274 C 525.356 777.183, 531.075 787.047, 543.635 797.943 L 551.770 805 752.920 805 L 954.069 805 963.039 796.353 C 969.721 789.912, 972.873 785.978, 975.400 780.927 C 982.277 767.181, 982.530 751.613, 976.090 738.532 C 970.722 727.627, 961.956 721.970, 947.500 720.081 C 929.108 717.679, 878.981 717.007, 717.821 717.004 L 549.143 717 538.342 728.507 M 285.500 1050.680 C 268.522 1051.123, 246.794 1053.035, 240.500 1054.639 C 223.729 1058.914, 213.833 1068.863, 210.443 1084.856 C 207.599 1098.272, 209.363 1111.589, 215.018 1119.405 C 216.647 1121.657, 222.597 1127.449, 228.240 1132.276 L 238.500 1141.052 333.500 1140.707 C 444.344 1140.305, 437.800 1140.861, 448.400 1130.945 C 463.228 1117.074, 466.913 1093.810, 457.340 1074.500 C 452.459 1064.654, 444.829 1059.199, 432.232 1056.549 C 408.913 1051.644, 345.582 1049.110, 285.500 1050.680 M 572.500 1051.971 C 562.236 1052.516, 559.761 1052.991, 555.393 1055.249 C 548.192 1058.971, 544.236 1062.568, 539.811 1069.413 C 531.981 1081.529, 529.643 1098.465, 534.111 1110.712 C 536.866 1118.262, 546.623 1127.977, 556.844 1133.349 C 563.048 1136.609, 565.501 1137.294, 573.799 1138.087 C 614.427 1141.969, 879.949 1141.909, 926.080 1138.007 C 955.873 1135.487, 972.372 1123.310, 977.648 1099.948 C 980.561 1087.050, 978.142 1081.248, 962.452 1063.500 C 957.103 1057.450, 952.226 1052.169, 951.613 1051.765 C 950.263 1050.874, 589.472 1051.070, 572.500 1051.971" stroke="none" fill="#04c4fc" fill-rule="evenodd"></path></svg><style>@media (prefers-color-scheme: light) { :root { filter: none; } }
@media (prefers-color-scheme: dark) { :root { filter: none; } }
</style></svg>